Coordinates
version=1
nRows=19
nColumns=24
inDegrees=yes

Units are S.I. units (second, meters, Newtons, ...)
Angles are in degrees.

endheader
time	pelvis_tilt	pelvis_list	pelvis_rotation	pelvis_tx	pelvis_ty	pelvis_tz	hip_flexion_r	hip_adduction_r	hip_rotation_r	knee_angle_r	ankle_angle_r	subtalar_angle_r	mtp_angle_r	hip_flexion_l	hip_adduction_l	hip_rotation_l	knee_angle_l	ankle_angle_l	subtalar_angle_l	mtp_angle_l	lumbar_extension	lumbar_bending	lumbar_rotation
      0.69600000	     -4.28295646	     -2.59702789	      4.46396843	     -0.42797004	      0.91370227	      0.33458801	     15.06235869	      7.55971747	     -3.36831267	    -21.61019969	      8.52371872	     -3.48417826	      2.90379885	     19.55285874	     -4.49059738	     -4.06282662	    -73.28923210	     -8.43970881	    -16.09656425	     -1.93839500	     -6.27648750	      3.23021307	     -1.65792058
      0.70016667	     -4.37293222	     -2.41598731	      4.41035279	     -0.42265999	      0.91471785	      0.33458203	     14.52936927	      7.40643130	     -3.23255320	    -21.13677661	      8.56561064	     -3.40513975	      2.90445656	     20.32283586	     -4.20047844	     -4.15876467	    -73.22217084	     -8.15360814	    -16.16222410	     -1.94893673	     -6.18298945	      3.03033571	     -1.52389202
      0.70433333	     -4.47568475	     -2.20375217	      4.30606459	     -0.41737508	      0.91570307	      0.33463829	     14.02657787	      7.22703899	     -3.04888033	    -20.69504059	      8.56267793	     -3.34626926	      2.90321419	     21.07027065	     -3.88158043	     -4.29319318	    -73.06588324	     -7.82819662	    -16.15084500	     -1.97441679	     -6.10393330	      2.78581415	     -1.22270977
      0.70850000	     -4.53475572	     -2.01849749	      4.22509303	     -0.41200869	      0.91673967	      0.33465680	     13.44123256	      7.07349458	     -2.90228117	    -20.18391432	      8.61902481	     -3.26579664	      2.90331508	     21.75135284	     -3.59686921	     -4.41330082	    -72.82961686	     -7.56782712	    -16.15733472	     -1.98120559	     -6.01761531	      2.58137784	     -1.10716585
      0.71266667	     -4.58576101	     -1.79279108	      4.09548469	     -0.40668596	      0.91778151	      0.33473278	     12.86500647	      6.88496051	     -2.69183307	    -19.70677510	      8.60198923	     -3.20741985	      2.90003385	     22.38438567	     -3.27605655	     -4.57390149	    -72.50061573	     -7.24727572	    -16.07001838	     -1.98908707	     -6.00292671	      2.32461760	     -0.86606947
      0.71683333	     -4.61138567	     -1.59266841	      3.96951391	     -0.40132776	      0.91882420	      0.33482467	     12.24184526	      6.72700226	     -2.48638505	    -19.18646805	      8.63572422	     -3.17483693	      2.89458666	     22.97381159	     -2.99636139	     -4.73151406	    -72.10671738	     -6.94997563	    -15.95544285	     -1.99626475	     -5.98303110	      2.08972967	     -0.55251975
      0.72100000	     -4.65013001	     -1.37111143	      3.82123051	     -0.39597771	      0.91983570	      0.33490490	     11.64410067	      6.53688171	     -2.28807692	    -18.68407767	      8.60065000	     -3.09428999	      2.88935972	     23.54591789	     -2.68900687	     -4.90643024	    -71.62550447	     -6.64864538	    -15.86610024	     -1.99055294	     -5.95218074	      1.85034041	     -0.41538642
      0.72516667	     -4.65793886	     -1.14749802	      3.65873965	     -0.39062275	      0.92086390	      0.33502333	     11.00891946	      6.34998231	     -2.07107836	    -18.17095730	      8.57969284	     -3.04288957	      2.88336165	     24.05785270	     -2.39516337	     -5.09741276	    -71.06830131	     -6.34012841	    -15.72757911	     -1.97700954	     -5.96078372	      1.60005430	     -0.21490554
      0.72933333	     -4.65416647	     -0.92679809	      3.48190312	     -0.38526495	      0.92187644	      0.33515795	     10.35863220	      6.16437787	     -1.84884042	    -17.64570532	      8.54616535	     -2.98934981	      2.87653879	     24.53410273	     -2.11388293	     -5.30035701	    -70.44145001	     -6.02854493	    -15.57424427	     -1.95708056	     -5.97662224	      1.35235376	     -0.00280386
      0.73350000	     -4.61162748	     -0.72582424	      3.30198177	     -0.37990162	      0.92289729	      0.33532479	      9.65376761	      6.00539407	     -1.61329723	    -17.08851683	      8.53453948	     -2.98688259	      2.86498376	     24.95093357	     -1.86924105	     -5.50484943	    -69.75701160	     -5.70767208	    -15.38053962	     -1.91680008	     -6.03297039	      1.12269852	      0.32869997
      0.73766667	     -4.58451816	     -0.51195319	      3.10466494	     -0.37455614	      0.92386371	      0.33549185	      8.98019671	      5.82327220	     -1.38516941	    -16.55333709	      8.48165630	     -2.95234035	      2.85320963	     25.35867014	     -1.61277364	     -5.72534269	    -68.99672552	     -5.39399595	    -15.20916975	     -1.87058426	     -6.07250609	      0.87762593	      0.55523950
      0.74183333	     -4.54066599	     -0.29919233	      2.89736740	     -0.36923221	      0.92481154	      0.33567659	      8.29142999	      5.63991252	     -1.15260032	    -16.01596370	      8.42387698	     -2.91444430	      2.84102722	     25.72745141	     -1.36452937	     -5.94964028	    -68.17064638	     -5.07642832	    -15.03196884	     -1.81693361	     -6.13748861	      0.63948606	      0.78787175
      0.74600000	     -4.48664603	     -0.09526444	      2.68321404	     -0.36391889	      0.92572498	      0.33587245	      7.59288066	      5.46233430	     -0.92124306	    -15.47215892	      8.35421388	     -2.87621206	      2.82875560	     26.06627140	     -1.13284025	     -6.17730826	    -67.28365859	     -4.75861019	    -14.85148167	     -1.75549828	     -6.21487474	      0.40685210	      1.02522251
      0.75016667	     -4.45034823	      0.11997308	      2.45056218	     -0.35864989	      0.92656842	      0.33607815	      6.93643313	      5.26354441	     -0.69993383	    -14.96312895	      8.25443436	     -2.80642259	      2.81958725	     26.40236685	     -0.89195656	     -6.41764201	    -66.32736989	     -4.44933464	    -14.69132664	     -1.71008833	     -6.27677188	      0.16916853	      1.19327811
      0.75433333	     -4.35091048	      0.29507970	      2.23695572	     -0.35335348	      0.92743990	      0.33629035	      6.17749890	      5.11172682	     -0.46731389	    -14.38152654	      8.19892601	     -2.79964629	      2.80761076	     26.65814121	     -0.70415195	     -6.63599706	    -65.33004239	     -4.13731332	    -14.50873337	     -1.62997951	     -6.40376374	     -0.03538530	      1.50398853
      0.75850000	     -4.31158374	      0.49793316	      1.99402102	     -0.34812112	      0.92817787	      0.33650149	      5.53173216	      4.91379584	     -0.26331964	    -13.88382751	      8.08914538	     -2.72465523	      2.79980163	     26.95332705	     -0.48577527	     -6.88007648	    -64.25495003	     -3.83957540	    -14.36576538	     -1.58221463	     -6.46460933	     -0.26547346	      1.65270403
      0.76266667	     -4.19723935	      0.65994363	      1.77474834	     -0.34286524	      0.92895870	      0.33670922	      4.76837333	      4.76248557	     -0.06191100	    -13.30962359	      8.03320455	     -2.69970408	      2.79231028	     27.15583276	     -0.31715258	     -7.09755646	    -63.14020451	     -3.55074822	    -14.21186205	     -1.50523942	     -6.60679960	     -0.45321913	      1.94120878
      0.76683333	     -4.11836128	      0.82581161	      1.54032455	     -0.33765421	      0.92963070	      0.33692843	      4.06760266	      4.59870371	      0.13889423	    -12.77268154	      7.94158774	     -2.64924780	      2.78658653	     27.37776292	     -0.14499611	     -7.31807133	    -61.96545930	     -3.27214925	    -14.08245972	     -1.42542843	     -6.71615624	     -0.64508022	      2.17572477
      0.77100000	     -4.03772690	      0.97957098	      1.30901182	     -0.33247131	      0.93024222	      0.33713438	      3.36935120	      4.44050660	      0.32732565	    -12.23583810	      7.84615102	     -2.57698896	      2.78383001	     27.58197139	      0.01745930	     -7.52494407	    -60.73705885	     -3.00503455	    -13.96948069	     -1.33941168	     -6.83581325	     -0.82323291	      2.40345566
